<?xml version="1.0" encoding="utf-8"?>
<!-- Generator: Adobe Illustrator 24.1.1, SVG Export Plug-In . SVG Version: 6.00 Build 0)  -->
<svg version="1.1" id="Layer_1" xmlns="http://www.w3.org/2000/svg" xmlns:xlink="http://www.w3.org/1999/xlink" x="0px" y="0px"
	 viewBox="0 0 512 512" style="enable-background:new 0 0 512 512;" xml:space="preserve">
<style type="text/css">
	.st0{fill:url(#SVGID_1_);}
	.st1{fill:url(#SVGID_2_);}
	.st2{fill:url(#SVGID_3_);}
	.st3{fill:url(#SVGID_4_);}
	.st4{fill:url(#SVGID_5_);}
	.st5{fill:url(#SVGID_6_);}
	.st6{fill:url(#SVGID_7_);}
	.st7{fill:url(#SVGID_8_);}
	.st8{fill:url(#SVGID_9_);}
</style>
<linearGradient id="SVGID_1_" gradientUnits="userSpaceOnUse" x1="155.392" y1="259.9991" x2="233.3805" y2="259.9991">
	<stop  offset="0" style="stop-color:#070035"/>
	<stop  offset="1" style="stop-color:#0A0056"/>
</linearGradient>
<path class="st0" d="M233.38,311.1c-6.9,0-13,0-19.63,0c-5.66-11.64-11.43-23.48-17.2-35.33c-7.93,0-15.57,0-23.82,0
	c0,11.75,0,23.32,0,35.19c-6.08,0-11.55,0-17.34,0c0-33.84,0-67.63,0-101.23c1.05-0.97,2.09-0.8,3.06-0.8
	c13.24-0.01,26.48-0.04,39.72,0.04c2.84,0.02,5.72,0.19,8.5,0.69c15.1,2.75,24.35,13.69,25.01,29.63
	c0.59,14.16-3.4,26.15-16.93,33.49C220.91,285.43,226.97,297.91,233.38,311.1z M172.87,225.22c0,11.7,0,22.59,0,33.97
	c8.88,0,17.51,0.21,26.12-0.06c7.73-0.24,11.99-3.53,14.15-10.1c2.46-7.48,0.53-16.32-4.5-20.49c-1.68-1.39-3.62-2.41-5.73-2.68
	C193.02,224.56,183.1,225.44,172.87,225.22z"/>
<linearGradient id="SVGID_2_" gradientUnits="userSpaceOnUse" x1="32.6479" y1="261.4951" x2="115.5262" y2="261.4951">
	<stop  offset="0" style="stop-color:#070035"/>
	<stop  offset="1" style="stop-color:#0A0056"/>
</linearGradient>
<path class="st1" d="M33.5,209.21c5.53,0,11.01,0,16.44,0c0.96,1.81,0.56,3.55,0.57,5.21c0.04,19.65-0.11,39.29,0.08,58.94
	c0.16,16.99,15.9,27.95,31.81,22.2c9.34-3.38,14.87-10.3,15.11-20.22c0.45-18.5,0.24-37.01,0.3-55.52c0.01-3.39,0-6.79,0-10.55
	c6,0,11.59,0,17.1,0c0.89,1.5,0.56,2.95,0.57,4.33c0.02,19.36-0.03,38.72,0.03,58.09c0.05,15.64-5.05,28.81-19.41,36.36
	c-15.15,7.96-30.78,7.66-45.66-1.03c-10.23-5.98-16.21-15.52-16.95-27.22c-1.47-23.02-0.54-46.1-0.48-69.16
	C33,210.37,33.18,210.1,33.5,209.21z"/>
<linearGradient id="SVGID_3_" gradientUnits="userSpaceOnUse" x1="402.9037" y1="235.8914" x2="479.3521" y2="235.8914">
	<stop  offset="0" style="stop-color:#070035"/>
	<stop  offset="1" style="stop-color:#0A0056"/>
</linearGradient>
<path class="st2" d="M460.92,215.79c6.46,0,12.26,0,18.43,0c0,15.34,0,30.2,0,45.24c-1.83,1.13-4.02,0.44-6.08,0.58
	c-5.92,0.4-11.73,1.56-16.54,5.04c-10.24,7.4-14.34,7.36-31.74,6.57c2.22-6.96,0.79-12.84-5.9-16.91
	c3.16-5.65,2.75-10.84-1.77-15.91c5.41-4.23,4.92-11.11,7.95-17.37c2.51,13.1,9.11,21.56,22.01,23.58c3.46,0.54,7.44,0.84,9.82-2.84
	c-0.27-2.77-1.68-3.58-4.08-3.48c-12.51,0.56-18.39-3.98-21.33-16.42c-0.74-3.14-1.89-5.98-4.74-7.8c-1.57-1-3.19-1.94-5.15-1.17
	c-1.49,0.97-1.77,2.52-2.16,4.04c-1.15,4.4-2.2,8.84-3.58,13.17c-1.19,3.74-4.89,5.43-8.57,4.27c-3.74-1.18-5.34-3.96-4.24-7.96
	c2.26-8.22,4.6-16.43,7.04-24.6c1.4-4.7,4.35-6.39,9.15-5.26c9.27,2.18,18.51,4.51,27.77,6.75c2,0.48,3.61,1.54,5.12,2.91
	C455.15,210.8,458.07,213.29,460.92,215.79z"/>
<linearGradient id="SVGID_4_" gradientUnits="userSpaceOnUse" x1="269.6902" y1="260.1338" x2="286.425" y2="260.1338">
	<stop  offset="0" style="stop-color:#070035"/>
	<stop  offset="1" style="stop-color:#0A0056"/>
</linearGradient>
<path class="st3" d="M286.43,209.25c0,34.17,0,67.84,0,101.76c-5.63,0-10.99,0-16.73,0c0-33.82,0-67.62,0-101.76
	C275.14,209.25,280.61,209.25,286.43,209.25z"/>
<linearGradient id="SVGID_5_" gradientUnits="userSpaceOnUse" x1="352.574" y1="275.7583" x2="369.1817" y2="275.7583">
	<stop  offset="0" style="stop-color:#070035"/>
	<stop  offset="1" style="stop-color:#0A0056"/>
</linearGradient>
<path class="st4" d="M369.18,311.04c-5.61,0-10.95,0-16.61,0c0-23.57,0-46.92,0-70.57c5.53,0,10.86,0,16.61,0
	C369.18,263.91,369.18,287.26,369.18,311.04z"/>
<linearGradient id="SVGID_6_" gradientUnits="userSpaceOnUse" x1="311.9262" y1="212.9102" x2="402.6639" y2="212.9102">
	<stop  offset="0" style="stop-color:#070035"/>
	<stop  offset="1" style="stop-color:#0A0056"/>
</linearGradient>
<path class="st5" d="M402.66,207.06c-0.32,4.09-1.95,7.59-2.76,11.12c-1.42,1.15-2.9,0.79-4.28,0.79
	c-25.18,0.02-50.35,0.02-75.53,0.01c-1.84,0-3.7,0.14-5.37-0.94c-2.13-1.38-3-3.33-2.75-5.82c0.27-2.75,1.95-4.37,4.44-5.13
	c1.06-0.32,2.25-0.28,3.38-0.28c26.46-0.01,52.92-0.01,79.37,0C400.27,206.81,401.38,206.96,402.66,207.06z"/>
<linearGradient id="SVGID_7_" gradientUnits="userSpaceOnUse" x1="382.0226" y1="249.469" x2="415.1325" y2="249.469">
	<stop  offset="0" style="stop-color:#070035"/>
	<stop  offset="1" style="stop-color:#0A0056"/>
</linearGradient>
<path class="st6" d="M382.6,254.11c-0.67-3.31-1.03-6.74,0.52-10.58c9.23,0,18.43-0.22,27.61,0.12c3.02,0.11,4.56,2.92,4.39,5.9
	c-0.2,3.67-2.57,5.72-6.15,5.81c-6.82,0.18-13.64,0.1-20.46,0.08C386.69,255.44,384.78,255.81,382.6,254.11z"/>
<linearGradient id="SVGID_8_" gradientUnits="userSpaceOnUse" x1="387.0003" y1="267.495" x2="419.9602" y2="267.495">
	<stop  offset="0" style="stop-color:#070035"/>
	<stop  offset="1" style="stop-color:#0A0056"/>
</linearGradient>
<path class="st7" d="M387.42,272.06c-0.5-3.07-0.63-6.27,0.05-9.15c1.12-1.48,2.42-1.45,3.7-1.45c7.38-0.01,14.76-0.06,22.15,0.02
	c4.26,0.05,6.67,2.37,6.64,6.07c-0.04,3.53-2.33,5.87-6.37,5.94c-7.52,0.13-15.05,0.04-22.57,0.04
	C389.86,273.53,388.74,273.4,387.42,272.06z"/>
<linearGradient id="SVGID_9_" gradientUnits="userSpaceOnUse" x1="377.0822" y1="231.2192" x2="398.6043" y2="231.2192">
	<stop  offset="0" style="stop-color:#070035"/>
	<stop  offset="1" style="stop-color:#0A0056"/>
</linearGradient>
<path class="st8" d="M378.25,225.23c6.68,0,12.83,0,19.31,0c-0.81,4.06-1.19,7.8,1.04,11.88c-7.25-0.04-13.7,0.41-20.36-0.35
	C376.66,232.9,376.72,229.31,378.25,225.23z"/>
</svg>
